# xmcd
#
# Track frame offsets:
#	150
#	10402
#	28482
#	44112
#	56980
#	74672
#	90160
#	105302
#	122300
#	138132
#	161050
#	165165
#	173495
#	179997
#	185432
#	190382
#	196607
#	200732
#	204095
#	204717
#
# Disc length: 2751
#
# Revision: 1
# Processed by: cddbd v1.5.1PL0 Copyright (c) Steve Scherf et al.
# Submitted via: VisiTrax 2.9.5.180 - For more info visit www.synapsa.com
# Normalized: r0:DSETVAR1
#
DISCID=1e0abd14
DTITLE=Various Artist - CDX 90 August 1994
DYEAR=1994
DGENRE=
TTITLE0=Clay Walker - If I could make a living
TTITLE1=Lowen and Navarro - Just to see you
TTITLE2=Dan Seals - Love thing
TTITLE3=Billy Dean - Men will be boys
TTITLE4=Marty Stuart - That's what love's about
TTITLE5=Sammy Kershaw - Third rate romance
TTITLE6=Alabama - We can't love like this anymore
TTITLE7=Tanya tucker - You just watch me
TTITLE8=Becky Hobbs - I can't fight this feeling
TTITLE9=Joe diffie - Third rock from the sun
TTITLE10=Chet Atkins - Interview
TTITLE11=Chet Atkins - Interview
TTITLE12=Chet Atkins - Interview
TTITLE13=Chet Atkins - Interview
TTITLE14=Chet Atkins - Interview
TTITLE15=Chet Atkins - Interview
TTITLE16=Chet Atkins - Interview
TTITLE17=Chet Atkins - Interview
TTITLE18=Chet Atkins - Interview
TTITLE19=John Anderson - boating safety
EXTD=
EXTT0=
EXTT1=
EXTT2=
EXTT3=
EXTT4=
EXTT5=
EXTT6=
EXTT7=
EXTT8=
EXTT9=
EXTT10=
EXTT11=
EXTT12=
EXTT13=
EXTT14=
EXTT15=
EXTT16=
EXTT17=
EXTT18=
EXTT19=
PLAYORDER=
